<svg width="160" height="160" viewBox="0 0 160 160" fill="none" xmlns="http://www.w3.org/2000/svg">
  <defs>
    <linearGradient id="ascendantStroke" x1="28" y1="20" x2="132" y2="140" gradientUnits="userSpaceOnUse">
      <stop stop-color="#FEF3C7" />
      <stop offset="1" stop-color="#F59E0B" />
    </linearGradient>
  </defs>
  <path d="M80 18L126 44V96L80 142L34 96V44L80 18Z" stroke="url(#ascendantStroke)" stroke-width="8" stroke-linejoin="round"/>
  <path d="M80 30L115 50V90L80 126L45 90V50L80 30Z" stroke="url(#ascendantStroke)" stroke-width="3.5" stroke-linejoin="round" opacity="0.85"/>
  <path d="M80 46L87 66L108 66L91 79L98 100L80 87L62 100L69 79L52 66L73 66L80 46Z" stroke="url(#ascendantStroke)" stroke-width="5" stroke-linejoin="round"/>
  <path d="M40 82L58 72L54 92L40 104" stroke="url(#ascendantStroke)" stroke-width="5" stroke-linecap="round" stroke-linejoin="round"/>
  <path d="M120 82L102 72L106 92L120 104" stroke="url(#ascendantStroke)" stroke-width="5" stroke-linecap="round" stroke-linejoin="round"/>
</svg>
