<svg width="160" height="160" viewBox="0 0 160 160" fill="none" xmlns="http://www.w3.org/2000/svg">
  <defs>
    <linearGradient id="legendStroke" x1="24" y1="20" x2="136" y2="140" gradientUnits="userSpaceOnUse">
      <stop stop-color="#C7D2FE" />
      <stop offset="1" stop-color="#8B5CF6" />
    </linearGradient>
  </defs>
  <path d="M80 18L126 44V96L80 142L34 96V44L80 18Z" stroke="url(#legendStroke)" stroke-width="8" stroke-linejoin="round"/>
  <path d="M80 30L115 50V90L80 126L45 90V50L80 30Z" stroke="url(#legendStroke)" stroke-width="3.5" stroke-linejoin="round" opacity="0.85"/>
  <circle cx="80" cy="82" r="22" stroke="url(#legendStroke)" stroke-width="5"/>
  <path d="M62 62L70 48L80 58L90 48L98 62" stroke="url(#legendStroke)" stroke-width="5" stroke-linecap="round" stroke-linejoin="round"/>
  <path d="M80 104V120" stroke="url(#legendStroke)" stroke-width="5" stroke-linecap="round"/>
  <path d="M56 118C63 110 71 106 80 106C89 106 97 110 104 118" stroke="url(#legendStroke)" stroke-width="5" stroke-linecap="round"/>
  <circle cx="80" cy="40" r="8" fill="#C4B5FD"/>
</svg>
